<svg xmlns="http://www.w3.org/2000/svg"  viewBox="0 0 50 50" width="50px" height="50px"><path d="M 28.017578 0 C 18.365312 0 13.284725 11.587241 12.294922 14.099609 C 10.995705 14.428134 10.017578 15.605142 10.017578 17 L 10.017578 20 C 10.017578 20.99452 10.518227 21.876637 11.273438 22.423828 C 11.102347 23.311472 11.016632 24.228902 11.001953 25.164062 C 8.8558598 25.360405 7.0588204 26.020196 5.7832031 27.117188 C 4.2986252 28.393877 3.3983374 30.059892 2.8457031 31.675781 C 1.7404345 34.907561 1.9746094 38.068359 1.9746094 38.068359 A 1.0001 1.0001 0 0 0 3.5742188 38.798828 L 4.4550781 38.134766 C 4.4459281 39.171212 4.5696481 40.086632 4.8261719 40.765625 C 5.2711899 41.943544 5.9726564 42.625 5.9726562 42.625 A 1.0001 1.0001 0 0 0 7.5136719 42.414062 L 8.1425781 41.375 C 8.5117925 42.43749 8.913646 43.35746 9.3046875 44.001953 C 9.9511444 45.067407 10.564453 45.636719 10.564453 45.636719 A 1.0001 1.0001 0 0 0 12.193359 45.189453 L 12.683594 43.585938 C 18.248066 48.386336 24.751953 49.974609 24.751953 49.974609 A 1.0001 1.0001 0 0 0 25.191406 49.974609 C 25.191406 49.974609 31.69647 48.386274 37.261719 43.585938 L 37.751953 45.189453 A 1.0001 1.0001 0 0 0 39.380859 45.636719 C 39.380859 45.636719 39.994168 45.067407 40.640625 44.001953 C 41.031667 43.35746 41.43352 42.43749 41.802734 41.375 L 42.431641 42.414062 A 1.0001 1.0001 0 0 0 43.972656 42.625 C 43.972656 42.625 44.674152 41.943616 45.119141 40.765625 C 45.380501 40.073742 45.499418 39.132753 45.482422 38.070312 L 46.367188 38.708984 A 1.0001 1.0001 0 0 0 47.947266 38.001953 C 47.947266 38.001953 48.298664 34.86035 47.25 31.638672 C 46.725668 30.027833 45.836586 28.362613 44.328125 27.09375 C 43.025635 25.998143 41.175548 25.344604 38.943359 25.15625 C 38.928602 24.245942 38.84659 23.351991 38.683594 22.486328 C 39.485007 21.945327 40.017578 21.030638 40.017578 20 L 40.017578 17 C 40.017578 15.633659 39.077734 14.478949 37.818359 14.123047 C 37.618525 13.35685 37.169215 11.655198 36.626953 9.9023438 C 35.988953 10.020344 35.290219 10.060547 34.699219 10.060547 C 31.514219 10.060547 29.662484 8.7203438 28.396484 7.7773438 C 27.919484 7.4213438 27.858531 6.7327344 28.269531 6.3027344 C 28.619531 5.9367344 29.187984 5.8910313 29.583984 6.2070312 C 30.769984 7.1520313 32.730422 8.6470937 35.982422 7.9960938 C 37.663198 8.1389313 41.247917 9.835793 42.777344 11.605469 C 42.271418 12.317138 42.017578 13.159575 42.017578 14 C 42.017578 14.972222 42.336259 15.957881 43.019531 16.726562 C 43.702804 17.495244 44.767578 18 46.017578 18 C 47.267578 18 48.330399 17.495244 49.013672 16.726562 C 49.696944 15.957881 50.017578 14.972222 50.017578 14 C 50.017578 13.027778 49.696944 12.042118 49.013672 11.273438 C 48.484859 10.678523 47.724399 10.249127 46.830078 10.082031 C 46.297002 7.9563701 44.101499 2 36.017578 2 C 32.913578 2 32.157781 1.4862344 31.425781 0.99023438 C 30.739781 0.52523437 29.963578 0 28.017578 0 z M 46.017578 12 C 46.767578 12 47.202804 12.245244 47.519531 12.601562 C 47.836258 12.957881 48.017578 13.472222 48.017578 14 C 48.017578 14.527778 47.836258 15.042119 47.519531 15.398438 C 47.202804 15.754755 46.767578 16 46.017578 16 C 45.267579 16 44.830399 15.754756 44.513672 15.398438 C 44.196945 15.042118 44.017578 14.527778 44.017578 14 C 44.017578 13.472222 44.196945 12.957881 44.513672 12.601562 C 44.830399 12.245245 45.267579 12 46.017578 12 z M 13.017578 16 L 37.017578 16 C 37.582608 16 38.017578 16.43497 38.017578 17 L 38.017578 20 C 38.017578 20.564427 37.581119 21 37.017578 21 L 13.017578 21 C 12.452548 21 12.017578 20.56503 12.017578 20 L 12.017578 17 C 12.017578 16.43497 12.452548 16 13.017578 16 z M 13.216797 23 L 36.728516 23 C 36.873854 23.777461 36.972656 24.57293 36.972656 25.396484 C 36.972656 25.533803 36.955952 25.717407 36.945312 25.955078 A 1.0001 1.0001 0 0 0 37.943359 27 C 40.318058 27 41.897571 27.663176 43.041016 28.625 C 44.18446 29.586824 44.905816 30.894402 45.349609 32.257812 C 45.78287 33.588864 45.925176 34.923676 45.970703 35.957031 L 44.787109 35.103516 A 1.0001 1.0001 0 0 0 43.242188 36.193359 C 43.750478 37.939364 43.558178 39.131471 43.271484 39.941406 L 42.326172 38.378906 A 1.0001 1.0001 0 0 0 40.488281 38.708984 C 40.137096 40.540256 39.559901 41.734891 39.056641 42.617188 L 38.75 41.611328 A 1.0001 1.0001 0 0 0 37.091797 41.191406 C 31.935196 46.27071 25.328076 47.864918 24.972656 47.949219 C 24.619923 47.865579 18.01021 46.271719 12.853516 41.191406 A 1.0001 1.0001 0 0 0 11.195312 41.611328 L 10.886719 42.619141 C 10.383302 41.736838 9.8083665 40.541039 9.4570312 38.708984 A 1.0001 1.0001 0 0 0 7.6191406 38.378906 L 6.6738281 39.941406 C 6.3874423 39.131627 6.1950949 37.938899 6.703125 36.193359 A 1.0001 1.0001 0 0 0 5.140625 35.115234 L 4.0429688 35.941406 C 4.1261722 34.910208 4.2925863 33.62742 4.7382812 32.324219 C 5.211647 30.940108 5.9541404 29.606123 7.0859375 28.632812 C 8.2177346 27.659503 9.7424989 27 12.001953 27 A 1.0001 1.0001 0 0 0 13 25.960938 C 12.9903 25.716527 12.972656 25.531857 12.972656 25.396484 C 12.972656 24.57293 13.071458 23.777461 13.216797 23 z M 16.673828 24.990234 C 16.2411 24.977909 15.953125 25.001953 15.953125 25.001953 A 1.0003191 1.0003191 0 1 0 16.087891 26.998047 C 16.087891 26.998047 17.044848 26.953477 17.777344 27.136719 C 17.867646 27.159424 17.96193 27.207855 18.054688 27.246094 A 2 2 0 0 0 19.017578 31 A 2 2 0 0 0 20.990234 29.322266 C 21.577371 29.696182 22.244481 29.994141 23.060547 29.994141 A 1.0001 1.0001 0 1 0 23.060547 27.994141 C 22.531108 27.994141 21.952944 27.618291 21.191406 26.990234 C 20.429868 26.362178 19.548138 25.51973 18.265625 25.197266 C 17.684036 25.051255 17.106556 25.00256 16.673828 24.990234 z M 33.404297 24.990234 C 32.971569 25.00256 32.394089 25.051254 31.8125 25.197266 C 30.529987 25.51973 29.648257 26.362178 28.886719 26.990234 C 28.125181 27.618291 27.547017 27.994141 27.017578 27.994141 A 1.0001 1.0001 0 1 0 27.017578 29.994141 C 27.815367 29.994141 28.470784 29.709325 29.048828 29.347656 A 2 2 0 0 0 31.017578 31 A 2 2 0 0 0 31.994141 27.257812 C 32.096353 27.214119 32.199571 27.161754 32.298828 27.136719 C 33.031651 26.95274 33.990234 26.998047 33.990234 26.998047 A 1.0003191 1.0003191 0 1 0 34.125 25.001953 C 34.125 25.001953 33.837025 24.977909 33.404297 24.990234 z M 12.017578 30 C 9.8509116 30 8.5462491 30.557266 7.8105469 31.292969 C 7.4426957 31.66082 7.2355231 32.057103 7.1308594 32.371094 C 7.0261957 32.685085 7.0175781 33 7.0175781 33 A 1.0001 1.0001 0 1 0 9.0175781 33.023438 C 9.0180341 33.029385 9.0182745 33.031108 9.0273438 33.003906 C 9.0347192 32.981777 9.0515461 32.948704 9.0683594 32.916016 C 9.2551991 34.735869 9.9886762 36.264022 11.037109 37.492188 C 12.257167 38.921397 13.864117 39.976862 15.542969 40.880859 C 18.900672 42.688853 22.605175 44.001659 24.310547 45.707031 A 1.0001 1.0001 0 0 0 25.724609 45.707031 C 27.429982 44.001659 31.132531 42.688853 34.490234 40.880859 C 36.169086 39.976862 37.776036 38.921398 38.996094 37.492188 C 40.043777 36.264901 40.778896 34.738054 40.966797 32.919922 C 40.982019 32.950714 40.998814 32.982771 41.005859 33.003906 C 41.014953 33.031181 41.018656 33.031398 41.019531 33.025391 A 1.0001 1.0001 0 1 0 43.017578 33 C 43.017578 33 43.007008 32.685085 42.902344 32.371094 C 42.797679 32.057097 42.592461 31.66082 42.224609 31.292969 C 41.488907 30.557266 40.184245 30 38.017578 30 A 1.0001 1.0001 0 1 0 38.017578 32 C 38.407908 32 38.721642 32.028357 39.015625 32.0625 C 39.001834 33.800345 38.430296 35.075795 37.474609 36.195312 C 36.507167 37.328603 35.114117 38.273138 33.542969 39.119141 C 30.659133 40.671975 27.336766 41.881436 25.017578 43.830078 C 22.69839 41.881436 19.374071 40.671975 16.490234 39.119141 C 14.919086 38.273138 13.526036 37.328602 12.558594 36.195312 C 11.602907 35.075795 11.033276 33.800345 11.019531 32.0625 C 11.313514 32.028357 11.627248 32 12.017578 32 A 1.0001 1.0001 0 1 0 12.017578 30 z M 25.025391 32.994141 C 23.340391 32.994141 21.906359 33.649266 21.318359 34.572266 C 21.232359 34.696266 21.163234 34.833375 21.115234 34.984375 C 21.113234 34.990375 21.111375 34.997906 21.109375 35.003906 C 21.061375 35.158906 21.03125 35.320141 21.03125 35.494141 C 21.03125 36.322141 21.626328 36.994141 22.361328 36.994141 C 23.096328 36.994141 23.693359 36.501953 23.693359 36.501953 C 23.693359 37.329953 24.288438 38.001953 25.023438 38.001953 C 25.758437 38.001953 26.355469 37.329953 26.355469 36.501953 C 26.355469 36.501953 26.950547 36.994141 27.685547 36.994141 C 28.420547 36.994141 29.017578 36.322141 29.017578 35.494141 C 29.020578 35.320141 28.987453 35.158906 28.939453 35.003906 C 28.937453 34.997906 28.937547 34.990375 28.935547 34.984375 C 28.886547 34.833375 28.816469 34.696266 28.730469 34.572266 C 28.143469 33.649266 26.710391 32.994141 25.025391 32.994141 z"/></svg>